<svg xmlns="http://www.w3.org/2000/svg" viewBox="47 152 60 60">
  <defs>
    <style>
      .cls-1 {
        fill: #00cba0;
        fill-rule: evenodd;
      }
    </style>
  </defs>
  <g id="sia-green-logo" transform="translate(-8.21 67)">
    <g id="Desktop-_1200px_" data-name="Desktop-(&gt;1200px)" transform="translate(55.21 85)">
      <g id="Nav">
        <g id="logo">
          <path id="Fill-2" class="cls-1" d="M49,9.006c.059.052.119.1.175.159L49.011,9,49,9.006" transform="translate(-38.474 0.474)"/>
          <path id="Fill-3" class="cls-1" d="M50,8.011l.164.165c-.056-.056-.106-.118-.157-.176L50,8.011" transform="translate(-38.421 0.421)"/>
          <path id="Fill-4" class="cls-1" d="M89.629,23.359A19.844,19.844,0,0,0,70.664,22.23l-.009-.013a9.1,9.1,0,0,1-9.812-1.524c-.124-.111-.246-.223-.367-.343L48.3,8.176s-.012-.006-.01-.01A4.128,4.128,0,0,1,47.269,4.94s-.007,0-.009,0a4.27,4.27,0,0,0,.073-.771,4.181,4.181,0,1,0-3.4,4.093l0,.008a4.159,4.159,0,0,1,3.249,1s.009.009.01.01L59.429,21.512c.1.1.182.215.275.319a9.108,9.108,0,0,1,1.512,9.827s.005.007.009.01a19.807,19.807,0,0,0,3.885,22.442,20.3,20.3,0,0,0,12.405,5.828c1.17.1,17.838.045,17.838.045A3.646,3.646,0,0,0,97.826,58.9,3.95,3.95,0,0,0,99,56.338S99,41,99,40.192a19.858,19.858,0,0,0-.188-2.129A18.984,18.984,0,0,0,93.1,26.119a19.8,19.8,0,0,0-3.472-2.76ZM90.7,36.877a19.636,19.636,0,0,1,.491,3.469v8.179a3.56,3.56,0,0,1-3.645,3.646H79.6a16.139,16.139,0,0,1-3.732-.495A11.869,11.869,0,0,1,70.635,48.6,12,12,0,0,1,87.606,31.646,10.648,10.648,0,0,1,90.7,36.877Z" transform="translate(-39)"/>
        </g>
      </g>
    </g>
  </g>
</svg>
